<svg width="32" height="32" viewBox="0 0 32 32" fill="none" xmlns="http://www.w3.org/2000/svg">
<path d="M30.2339 32.0001C31.2091 32.0001 32 31.2094 32 30.234V1.76612C32 0.790625 31.2091 0 30.2339 0H1.76612C0.7905 0 0 0.790625 0 1.76612V30.234C0 31.2094 0.7905 32.0001 1.76612 32.0001H30.2339Z" fill="#395185"/>
<path d="M22.0792 32V19.6079H26.2389L26.8616 14.7785H22.0792V11.695C22.0792 10.2968 22.4676 9.34388 24.4728 9.34388L27.0301 9.34276V5.02338C26.5876 4.96451 25.0696 4.83301 23.3036 4.83301C19.6164 4.83301 17.0921 7.08363 17.0921 11.2169V14.7785H12.9219V19.6079H17.0921V32H22.0792Z" fill="white"/>
</svg>
