<svg width="32" height="32" viewBox="0 0 32 32" fill="none" xmlns="http://www.w3.org/2000/svg">
<rect width="32" height="32" rx="2" fill="#DD2A7B"/>
<path d="M15.9973 10.869C13.1579 10.869 10.8664 13.1606 10.8664 16C10.8664 18.8394 13.1579 21.131 15.9973 21.131C18.8367 21.131 21.1282 18.8394 21.1282 16C21.1282 13.1606 18.8367 10.869 15.9973 10.869ZM15.9973 19.3348C14.1611 19.3348 12.6626 17.8362 12.6626 16C12.6626 14.1638 14.1611 12.6652 15.9973 12.6652C17.8335 12.6652 19.332 14.1638 19.332 16C19.332 17.8362 17.8335 19.3348 15.9973 19.3348ZM21.3383 9.46308C20.6754 9.46308 20.14 9.99845 20.14 10.6614C20.14 11.3243 20.6754 11.8597 21.3383 11.8597C22.0013 11.8597 22.5366 11.3268 22.5366 10.6614C22.5368 10.504 22.5059 10.3481 22.4458 10.2026C22.3856 10.0571 22.2974 9.92493 22.1861 9.81362C22.0748 9.70231 21.9426 9.61405 21.7971 9.5539C21.6516 9.49375 21.4957 9.46289 21.3383 9.46308ZM25.9989 16C25.9989 14.6191 26.0114 13.2506 25.9338 11.8722C25.8563 10.2711 25.4911 8.85017 24.3203 7.67938C23.147 6.50609 21.7286 6.14334 20.1275 6.06579C18.7466 5.98824 17.3782 6.00074 15.9998 6.00074C14.6189 6.00074 13.2505 5.98824 11.8721 6.06579C10.271 6.14334 8.85012 6.50859 7.67935 7.67938C6.50608 8.85267 6.14334 10.2711 6.06579 11.8722C5.98824 13.2531 6.00074 14.6216 6.00074 16C6.00074 17.3784 5.98824 18.7494 6.06579 20.1278C6.14334 21.7289 6.50858 23.1498 7.67935 24.3206C8.85262 25.4939 10.271 25.8567 11.8721 25.9342C13.253 26.0118 14.6214 25.9993 15.9998 25.9993C17.3807 25.9993 18.7491 26.0118 20.1275 25.9342C21.7286 25.8567 23.1495 25.4914 24.3203 24.3206C25.4936 23.1473 25.8563 21.7289 25.9338 20.1278C26.0139 18.7494 25.9989 17.3809 25.9989 16ZM23.7974 21.899C23.6148 22.3543 23.3947 22.6945 23.0419 23.0448C22.6892 23.3975 22.3515 23.6176 21.8962 23.8003C20.5803 24.3231 17.4558 24.2055 15.9973 24.2055C14.5389 24.2055 11.4118 24.3231 10.0959 23.8028C9.64064 23.6201 9.30041 23.4 8.95018 23.0473C8.59745 22.6945 8.37731 22.3568 8.19469 21.9015C7.67434 20.5831 7.79192 17.4585 7.79192 16C7.79192 14.5415 7.67434 11.4144 8.19469 10.0985C8.37731 9.6432 8.59745 9.30298 8.95018 8.95274C9.30291 8.6025 9.64064 8.37985 10.0959 8.19723C11.4118 7.67688 14.5389 7.79446 15.9973 7.79446C17.4558 7.79446 20.5828 7.67688 21.8987 8.19723C22.354 8.37985 22.6942 8.6 23.0444 8.95274C23.3972 9.30548 23.6173 9.6432 23.7999 10.0985C24.3203 11.4144 24.2027 14.5415 24.2027 16C24.2027 17.4585 24.3203 20.5831 23.7974 21.899Z" fill="white"/>
</svg>
