<svg width="32" height="32" viewBox="0 0 32 32" fill="none" xmlns="http://www.w3.org/2000/svg">
<rect width="32" height="32" fill="white"/>
<path d="M0 0V32H32V0H0ZM7.84765 6.29101C9.11512 6.30528 10.3637 7.17968 10.418 8.69336C10.4451 10.0394 9.27208 11.0646 7.81445 11.0957H7.77931C6.52445 11.0812 5.29899 10.1849 5.24219 8.69336C5.26008 7.36235 6.37891 6.32259 7.84765 6.29101ZM21.4453 12.6504C22.8388 12.659 24.1539 13.0724 25.2344 14.1739C26.3572 15.4261 26.7177 17.1528 26.7578 18.9082V26.8926H22.1562V19.4512C22.146 18.0565 21.6682 16.3611 19.8223 16.3047C18.7404 16.3162 17.9775 16.9449 17.4551 17.9961C17.3125 18.3345 17.2919 18.7234 17.2851 19.1113V26.8926H12.6855C12.7031 23.0025 12.7273 19.1128 12.7187 15.2227C12.7187 14.1177 12.7081 13.3736 12.6855 12.9902H17.2851V14.9512C17.6756 14.3959 18.1086 13.8693 18.6894 13.4453C19.4773 12.883 20.4237 12.6675 21.4453 12.6504ZM5.51368 12.9902H10.1133V26.8926H5.51368V12.9902Z" fill="#0077B5"/>
</svg>
