<svg width="14" height="10" viewBox="0 0 14 10" fill="none" xmlns="http://www.w3.org/2000/svg">
<path d="M0.446446 1.07167L6.27978 4.42917C6.47578 4.54167 6.72933 4.595 6.98444 4.595C7.23956 4.595 7.49311 4.54167 7.68911 4.42917L13.5224 1.07167C13.9028 0.8525 14.2621 0 13.5644 0H0.405223C-0.292443 0 0.0668901 0.8525 0.446446 1.07167ZM13.699 2.9075L7.68911 6.26333C7.42467 6.41167 7.23956 6.42917 6.98444 6.42917C6.72933 6.42917 6.54422 6.41167 6.27978 6.26333C6.01533 6.115 0.73189 3.1475 0.300223 2.90667C-0.00310981 2.73667 1.25694e-06 2.93583 1.25694e-06 3.08917V9.16667C1.25694e-06 9.51667 0.440223 10 0.777779 10H13.2222C13.5598 10 14 9.51667 14 9.16667V3.09C14 2.93667 14.0031 2.7375 13.699 2.9075Z" fill="white"/>
</svg>
