<svg width="16" height="16" viewBox="0 0 16 16" fill="none" xmlns="http://www.w3.org/2000/svg">
<path d="M6.65074 9.34346C7.63149 10.3594 8.81817 11.1438 10.1274 11.6415L11.8987 10.2022C11.9512 10.1653 12.0135 10.1455 12.0772 10.1455C12.141 10.1455 12.2032 10.1653 12.2557 10.2022L15.5445 12.366C15.6694 12.4426 15.7751 12.5479 15.8532 12.6734C15.9314 12.7989 15.9799 12.9413 15.995 13.0893C16.01 13.2372 15.9912 13.3868 15.9399 13.526C15.8886 13.6652 15.8063 13.7904 15.6996 13.8916L14.1585 15.446C13.9378 15.6687 13.6666 15.8321 13.369 15.9217C13.0714 16.0113 12.7568 16.0242 12.4531 15.9594C9.42374 15.3205 6.63154 13.8242 4.39558 11.6415C2.20924 9.43713 0.696308 6.63225 0.0403042 3.56712C-0.0245005 3.26182 -0.0109749 2.9446 0.0795703 2.64621C0.170115 2.34781 0.33461 2.07836 0.557111 1.86397L2.15452 0.290347C2.25337 0.186616 2.37392 0.107065 2.50714 0.0576512C2.64036 0.00823711 2.78281 -0.00976002 2.92381 0.00500748C3.06481 0.019775 3.20071 0.0669244 3.32134 0.142925C3.44197 0.218926 3.5442 0.321809 3.62037 0.443871L5.80975 3.75903C5.84751 3.81109 5.8679 3.87416 5.8679 3.93894C5.8679 4.00372 5.84751 4.06679 5.80975 4.11885L4.36739 5.88917C4.86802 7.19938 5.64801 8.37934 6.65074 9.34346Z" fill="white"/>
</svg>
