<svg width="32" height="32" viewBox="0 0 32 32" fill="none" xmlns="http://www.w3.org/2000/svg">
<rect width="32" height="32" rx="2" fill="#00ACEE"/>
<path d="M26 9.9205C25.2466 10.2761 24.4932 10.4895 23.6027 10.6318C24.4247 10.0628 25.1096 9.28033 25.4521 8.28452C24.6301 8.78243 23.7397 9.13808 22.8493 9.35146C22.0959 8.49791 21 8 19.8356 8C17.5753 8 15.6575 9.9205 15.6575 12.3389C15.6575 12.6946 15.726 12.9791 15.7945 13.3347C12.3699 13.1925 9.28767 11.4142 7.23288 8.85356C6.89041 9.35146 6.68493 10.0628 6.68493 10.8452C6.68493 12.3389 7.43836 13.6904 8.53425 14.4017C7.84931 14.4017 7.23288 14.1883 6.68493 13.8326V13.9038C6.68493 15.9665 8.12329 17.7448 10.0411 18.1004C9.69863 18.1715 9.35616 18.2427 8.94521 18.2427C8.67123 18.2427 8.39726 18.2427 8.19178 18.1715C8.73973 19.8787 10.2466 21.159 12.0959 21.159C10.6575 22.2971 8.87671 23.0084 6.9589 23.0084C6.61644 23.0084 6.27397 23.0084 6 22.9372C7.64384 24.2887 9.83562 25 12.1644 25C19.7671 25 23.9452 18.4561 23.9452 12.7657V12.1967C24.7671 11.5565 25.4521 10.8452 26 9.9205Z" fill="white"/>
</svg>
