<svg width="20" height="21" viewBox="0 0 20 21" fill="none" xmlns="http://www.w3.org/2000/svg">
<path d="M10 0.0161133C4.486 0.0161133 0 4.50211 0 10.0161C0 15.5301 4.486 20.0161 10 20.0161C15.514 20.0161 20 15.5301 20 10.0161C20 4.50211 15.514 0.0161133 10 0.0161133ZM10 18.0161C5.589 18.0161 2 14.4271 2 10.0161C2 5.60511 5.589 2.01611 10 2.01611C14.411 2.01611 18 5.60511 18 10.0161C18 14.4271 14.411 18.0161 10 18.0161Z" fill="#C5272D"/>
<path d="M11 5.01611H9V10.4301L12.293 13.7231L13.707 12.3091L11 9.60211V5.01611Z" fill="#C5272D"/>
</svg>
