<svg width="20" height="20" viewBox="0 0 20 20" fill="none" xmlns="http://www.w3.org/2000/svg">
<path d="M17.7778 2H16.6667V1C16.6667 0.45 16.1667 0 15.5556 0C14.9444 0 14.4444 0.45 14.4444 1V2H5.55556V1C5.55556 0.45 5.05556 0 4.44444 0C3.83333 0 3.33333 0.45 3.33333 1V2H2.22222C0.988889 2 0.0111111 2.9 0.0111111 4L0 18C0 18.5304 0.234126 19.0391 0.650874 19.4142C1.06762 19.7893 1.63285 20 2.22222 20H17.7778C19 20 20 19.1 20 18V4C20 2.9 19 2 17.7778 2ZM17.7778 17C17.7778 17.55 17.2778 18 16.6667 18H3.33333C2.72222 18 2.22222 17.55 2.22222 17V7H17.7778V17ZM4.44444 9H6.66667V11H4.44444V9ZM8.88889 9H11.1111V11H8.88889V9ZM13.3333 9H15.5556V11H13.3333V9Z" fill="#C5272D"/>
</svg>
