<svg width="15" height="16" viewBox="0 0 15 16" fill="none" xmlns="http://www.w3.org/2000/svg">
<path fill-rule="evenodd" clip-rule="evenodd" d="M7.70995 1.29257C7.80308 1.38546 7.87697 1.49581 7.92738 1.6173C7.97779 1.73879 8.00374 1.86904 8.00374 2.00057C8.00374 2.1321 7.97779 2.26235 7.92738 2.38384C7.87697 2.50533 7.80308 2.61568 7.70995 2.70857L2.41595 8.00057L7.70995 13.2926C7.89773 13.4803 8.00322 13.735 8.00322 14.0006C8.00322 14.2661 7.89773 14.5208 7.70995 14.7086C7.52218 14.8963 7.26751 15.0018 7.00195 15.0018C6.7364 15.0018 6.48173 14.8963 6.29395 14.7086L0.293953 8.70857C0.200827 8.61568 0.126942 8.50533 0.0765291 8.38384C0.026116 8.26234 0.00016654 8.1321 0.000166551 8.00057C0.000166563 7.86903 0.0261161 7.73879 0.0765292 7.6173C0.126942 7.49581 0.200827 7.38546 0.293954 7.29257L6.29395 1.29257C6.38684 1.19944 6.4972 1.12556 6.61869 1.07514C6.74018 1.02473 6.87042 0.998782 7.00195 0.998782C7.13349 0.998783 7.26373 1.02473 7.38522 1.07514C7.50671 1.12556 7.61706 1.19944 7.70995 1.29257Z" fill="black"/>
<path fill-rule="evenodd" clip-rule="evenodd" d="M14.002 8.00057C14.002 8.26579 13.8966 8.52014 13.7091 8.70768C13.5215 8.89521 13.2672 9.00057 13.002 9.00057L3.00195 9.00057C2.73674 9.00057 2.48238 8.89521 2.29485 8.70768C2.10731 8.52014 2.00195 8.26578 2.00195 8.00057C2.00195 7.73535 2.10731 7.481 2.29485 7.29346C2.48238 7.10593 2.73674 7.00057 3.00195 7.00057L13.002 7.00057C13.2672 7.00057 13.5215 7.10593 13.7091 7.29346C13.8966 7.481 14.002 7.73535 14.002 8.00057Z" fill="black"/>
</svg>
