<svg width="24" height="24" viewBox="0 0 24 24" fill="none" xmlns="http://www.w3.org/2000/svg">
<path d="M16.0275 2.74588C12.3661 -0.915293 6.40688 -0.915293 2.74547 2.74588C-0.915155 6.40784 -0.915155 12.3659 2.74547 16.0278C6.00605 19.2874 11.0843 19.6366 14.7433 17.0914C14.8203 17.4556 14.9965 17.8033 15.2798 18.0866L20.612 23.4184C21.3891 24.1939 22.6447 24.1939 23.4178 23.4184C24.1941 22.6422 24.1941 21.3867 23.4178 20.6128L18.0856 15.2794C17.8039 14.9985 17.4554 14.8215 17.0911 14.7445C19.6381 11.0849 19.2889 6.00784 16.0275 2.74588ZM14.344 14.3445C11.6105 17.0779 7.1617 17.0779 4.42894 14.3445C1.69697 11.6111 1.69697 7.16341 4.42894 4.43003C7.1617 1.69745 11.6105 1.69745 14.344 4.43003C17.0776 7.16341 17.0776 11.6111 14.344 14.3445Z" fill="white"/>
</svg>
