<svg width="32" height="32" viewBox="0 0 32 32" fill="none" xmlns="http://www.w3.org/2000/svg">
<rect width="32" height="32" rx="2" fill="#E62117"/>
<path d="M26.5525 10.5156C26.4273 10.033 26.1826 9.59293 25.8428 9.23914C25.503 8.88534 25.0799 8.63017 24.6156 8.49901C22.8942 8.008 16.0076 8.00001 16.0076 8.00001C16.0076 8.00001 9.12209 7.99202 7.3996 8.46133C6.93565 8.59852 6.51343 8.8573 6.17349 9.21284C5.83355 9.56837 5.5873 10.0087 5.45838 10.4916C5.0044 12.2798 5 15.9886 5 15.9886C5 15.9886 4.9956 19.7157 5.44629 21.4856C5.69911 22.4642 6.44108 23.2372 7.38422 23.501C9.12319 23.992 15.9911 24 15.9911 24C15.9911 24 22.8778 24.008 24.5991 23.5398C25.0636 23.4089 25.487 23.1543 25.8277 22.8012C26.1683 22.4482 26.4144 22.0088 26.5415 21.5267C26.9965 19.7396 26.9998 16.032 26.9998 16.032C26.9998 16.032 27.0218 12.3037 26.5525 10.5156ZM13.8048 19.4245L13.8103 12.5732L19.5339 16.0046L13.8048 19.4245Z" fill="white"/>
</svg>
